<svg width="1600" height="1000" viewBox="0 0 1600 1000" fill="none" xmlns="http://www.w3.org/2000/svg">
  <rect width="1600" height="1000" rx="40" fill="#050816"/>
  <rect x="44" y="44" width="1512" height="912" rx="36" fill="url(#bg)"/>
  <circle cx="1320" cy="250" r="180" fill="#38BDF8" fill-opacity="0.22"/>
  <path d="M270 640C270 640 370 516 528 516H1092C1220 516 1314 584 1378 668L1442 770H240L270 640Z" fill="#F8FAFC" fill-opacity="0.98"/>
  <path d="M372 618C372 618 452 548 568 548H1030C1136 548 1214 592 1264 654L1328 756H332L372 618Z" fill="#111827"/>
  <rect x="448" y="470" width="360" height="66" rx="22" fill="#0F172A"/>
  <path d="M450 470H790L760 428H484L450 470Z" fill="#F8FAFC" fill-opacity="0.95"/>
  <rect x="522" y="438" width="214" height="36" rx="12" fill="#38BDF8"/>
  <circle cx="548" cy="730" r="92" fill="#020617"/>
  <circle cx="548" cy="730" r="50" fill="#334155"/>
  <circle cx="1080" cy="730" r="92" fill="#020617"/>
  <circle cx="1080" cy="730" r="50" fill="#334155"/>
  <rect x="730" y="500" width="132" height="54" rx="18" fill="#F8FAFC" fill-opacity="0.95"/>
  <rect x="750" y="482" width="92" height="20" rx="10" fill="#38BDF8"/>
  <rect x="352" y="777" width="900" height="24" rx="12" fill="#0F172A" fill-opacity="0.45"/>
  <defs>
    <linearGradient id="bg" x1="220" y1="90" x2="1400" y2="930" gradientUnits="userSpaceOnUse">
      <stop stop-color="#0F172A"/>
      <stop offset="1" stop-color="#1E293B"/>
    </linearGradient>
  </defs>
</svg>