<svg width="1600" height="1000" viewBox="0 0 1600 1000" fill="none" xmlns="http://www.w3.org/2000/svg">
  <rect width="1600" height="1000" rx="40" fill="#0B1020"/>
  <rect x="36" y="36" width="1528" height="928" rx="34" fill="url(#bg)"/>
  <circle cx="1312" cy="248" r="180" fill="#4ADE80" fill-opacity="0.2"/>
  <path d="M278 626C278 626 388 510 540 510H1048C1188 510 1300 578 1366 664L1432 772H246L278 626Z" fill="#F8FAFC" fill-opacity="0.98"/>
  <path d="M370 602C370 602 446 534 558 534H1006C1100 534 1188 579 1244 646L1304 756H314L370 602Z" fill="#111827"/>
  <rect x="456" y="466" width="326" height="68" rx="22" fill="#0F172A"/>
  <path d="M462 466H774L742 424H492L462 466Z" fill="#F8FAFC" fill-opacity="0.95"/>
  <rect x="528" y="434" width="202" height="34" rx="12" fill="#4ADE80"/>
  <circle cx="546" cy="726" r="88" fill="#020617"/>
  <circle cx="546" cy="726" r="46" fill="#475569"/>
  <circle cx="1084" cy="726" r="88" fill="#020617"/>
  <circle cx="1084" cy="726" r="46" fill="#475569"/>
  <rect x="734" y="496" width="120" height="54" rx="18" fill="#F8FAFC" fill-opacity="0.95"/>
  <rect x="750" y="478" width="86" height="18" rx="9" fill="#4ADE80"/>
  <rect x="358" y="772" width="878" height="24" rx="12" fill="#0F172A" fill-opacity="0.44"/>
  <defs>
    <linearGradient id="bg" x1="220" y1="90" x2="1400" y2="920" gradientUnits="userSpaceOnUse">
      <stop stop-color="#111827"/>
      <stop offset="1" stop-color="#1F2937"/>
    </linearGradient>
  </defs>
</svg>